<mxfile host="app.diagrams.net" modified="2023-11-25T16:35:07.591Z" agent="Mozilla/5.0 (Macintosh; Intel Mac OS X 10_15_7) AppleWebKit/537.36 (KHTML, like Gecko) Chrome/119.0.0.0 Safari/537.36" etag="w0ENNu9xZVLEKd4_DnJ9" version="22.1.4" type="google">
  <diagram name="Page-1" id="NjtDKgLGMc9teXbc2uLM">
    <mxGraphModel grid="1" page="1" gridSize="10" guides="1" tooltips="1" connect="1" arrows="1" fold="1" pageScale="1" pageWidth="850" pageHeight="1100" math="0" shadow="0">
      <root>
        <mxCell id="0" />
        <mxCell id="1" parent="0" />
        <mxCell id="SH9UqQtt1yjxoyA9mRzl-2" value="" style="shape=table;startSize=0;container=1;collapsible=0;childLayout=tableLayout;fontSize=16;" vertex="1" parent="1">
          <mxGeometry x="160" y="-1" width="870" height="40" as="geometry" />
        </mxCell>
        <mxCell id="SH9UqQtt1yjxoyA9mRzl-3" value="" style="shape=tableRow;horizontal=0;startSize=0;swimlaneHead=0;swimlaneBody=0;strokeColor=inherit;top=0;left=0;bottom=0;right=0;collapsible=0;dropTarget=0;fillColor=none;points=[[0,0.5],[1,0.5]];portConstraint=eastwest;fontSize=16;" vertex="1" parent="SH9UqQtt1yjxoyA9mRzl-2">
          <mxGeometry width="870" height="40" as="geometry" />
        </mxCell>
        <mxCell id="SH9UqQtt1yjxoyA9mRzl-4" value="&lt;u&gt;user_id&lt;/u&gt;" style="shape=partialRectangle;html=1;whiteSpace=wrap;connectable=0;strokeColor=inherit;overflow=hidden;fillColor=none;top=0;left=0;bottom=0;right=0;pointerEvents=1;fontSize=16;" vertex="1" parent="SH9UqQtt1yjxoyA9mRzl-3">
          <mxGeometry width="140" height="40" as="geometry">
            <mxRectangle width="140" height="40" as="alternateBounds" />
          </mxGeometry>
        </mxCell>
        <mxCell id="NsjD4ry6fY5dDlFeeTJH-3" value="username" style="shape=partialRectangle;html=1;whiteSpace=wrap;connectable=0;strokeColor=inherit;overflow=hidden;fillColor=none;top=0;left=0;bottom=0;right=0;pointerEvents=1;fontSize=16;" vertex="1" parent="SH9UqQtt1yjxoyA9mRzl-3">
          <mxGeometry x="140" width="110" height="40" as="geometry">
            <mxRectangle width="110" height="40" as="alternateBounds" />
          </mxGeometry>
        </mxCell>
        <mxCell id="SH9UqQtt1yjxoyA9mRzl-5" value="email" style="shape=partialRectangle;html=1;whiteSpace=wrap;connectable=0;strokeColor=inherit;overflow=hidden;fillColor=none;top=0;left=0;bottom=0;right=0;pointerEvents=1;fontSize=16;" vertex="1" parent="SH9UqQtt1yjxoyA9mRzl-3">
          <mxGeometry x="250" width="60" height="40" as="geometry">
            <mxRectangle width="60" height="40" as="alternateBounds" />
          </mxGeometry>
        </mxCell>
        <mxCell id="SH9UqQtt1yjxoyA9mRzl-6" value="first_name" style="shape=partialRectangle;html=1;whiteSpace=wrap;connectable=0;strokeColor=inherit;overflow=hidden;fillColor=none;top=0;left=0;bottom=0;right=0;pointerEvents=1;fontSize=16;align=center;" vertex="1" parent="SH9UqQtt1yjxoyA9mRzl-3">
          <mxGeometry x="310" width="90" height="40" as="geometry">
            <mxRectangle width="90" height="40" as="alternateBounds" />
          </mxGeometry>
        </mxCell>
        <mxCell id="BGvKS-bfmUBT8Ne4-ugD-6" value="last_name" style="shape=partialRectangle;html=1;whiteSpace=wrap;connectable=0;strokeColor=inherit;overflow=hidden;fillColor=none;top=0;left=0;bottom=0;right=0;pointerEvents=1;fontSize=16;" vertex="1" parent="SH9UqQtt1yjxoyA9mRzl-3">
          <mxGeometry x="400" width="100" height="40" as="geometry">
            <mxRectangle width="100" height="40" as="alternateBounds" />
          </mxGeometry>
        </mxCell>
        <mxCell id="BGvKS-bfmUBT8Ne4-ugD-5" value="avatar" style="shape=partialRectangle;html=1;whiteSpace=wrap;connectable=0;strokeColor=inherit;overflow=hidden;fillColor=none;top=0;left=0;bottom=0;right=0;pointerEvents=1;fontSize=16;align=center;" vertex="1" parent="SH9UqQtt1yjxoyA9mRzl-3">
          <mxGeometry x="500" width="70" height="40" as="geometry">
            <mxRectangle width="70" height="40" as="alternateBounds" />
          </mxGeometry>
        </mxCell>
        <mxCell id="BGvKS-bfmUBT8Ne4-ugD-4" value="password" style="shape=partialRectangle;html=1;whiteSpace=wrap;connectable=0;strokeColor=inherit;overflow=hidden;fillColor=none;top=0;left=0;bottom=0;right=0;pointerEvents=1;fontSize=16;" vertex="1" parent="SH9UqQtt1yjxoyA9mRzl-3">
          <mxGeometry x="570" width="80" height="40" as="geometry">
            <mxRectangle width="80" height="40" as="alternateBounds" />
          </mxGeometry>
        </mxCell>
        <mxCell id="BGvKS-bfmUBT8Ne4-ugD-3" value="user_type" style="shape=partialRectangle;html=1;whiteSpace=wrap;connectable=0;strokeColor=inherit;overflow=hidden;fillColor=none;top=0;left=0;bottom=0;right=0;pointerEvents=1;fontSize=16;" vertex="1" parent="SH9UqQtt1yjxoyA9mRzl-3">
          <mxGeometry x="650" width="90" height="40" as="geometry">
            <mxRectangle width="90" height="40" as="alternateBounds" />
          </mxGeometry>
        </mxCell>
        <mxCell id="BGvKS-bfmUBT8Ne4-ugD-113" value="bio" style="shape=partialRectangle;html=1;whiteSpace=wrap;connectable=0;strokeColor=inherit;overflow=hidden;fillColor=none;top=0;left=0;bottom=0;right=0;pointerEvents=1;fontSize=16;" vertex="1" parent="SH9UqQtt1yjxoyA9mRzl-3">
          <mxGeometry x="740" width="50" height="40" as="geometry">
            <mxRectangle width="50" height="40" as="alternateBounds" />
          </mxGeometry>
        </mxCell>
        <mxCell id="BGvKS-bfmUBT8Ne4-ugD-112" value="followers" style="shape=partialRectangle;html=1;whiteSpace=wrap;connectable=0;strokeColor=inherit;overflow=hidden;fillColor=none;top=0;left=0;bottom=0;right=0;pointerEvents=1;fontSize=16;" vertex="1" parent="SH9UqQtt1yjxoyA9mRzl-3">
          <mxGeometry x="790" width="80" height="40" as="geometry">
            <mxRectangle width="80" height="40" as="alternateBounds" />
          </mxGeometry>
        </mxCell>
        <mxCell id="BGvKS-bfmUBT8Ne4-ugD-1" value="REG_USER" style="text;html=1;align=center;verticalAlign=middle;resizable=0;points=[];autosize=1;strokeColor=none;fillColor=none;" vertex="1" parent="1">
          <mxGeometry x="160" y="-31" width="90" height="30" as="geometry" />
        </mxCell>
        <mxCell id="BGvKS-bfmUBT8Ne4-ugD-7" value="RECIPES" style="text;html=1;align=center;verticalAlign=middle;resizable=0;points=[];autosize=1;strokeColor=none;fillColor=none;" vertex="1" parent="1">
          <mxGeometry x="160" y="144" width="80" height="30" as="geometry" />
        </mxCell>
        <mxCell id="BGvKS-bfmUBT8Ne4-ugD-8" value="" style="shape=table;startSize=0;container=1;collapsible=0;childLayout=tableLayout;" vertex="1" parent="1">
          <mxGeometry x="160" y="167" width="514" height="40" as="geometry" />
        </mxCell>
        <mxCell id="BGvKS-bfmUBT8Ne4-ugD-9" value="" style="shape=tableRow;horizontal=0;startSize=0;swimlaneHead=0;swimlaneBody=0;strokeColor=inherit;top=0;left=0;bottom=0;right=0;collapsible=0;dropTarget=0;fillColor=none;points=[[0,0.5],[1,0.5]];portConstraint=eastwest;" vertex="1" parent="BGvKS-bfmUBT8Ne4-ugD-8">
          <mxGeometry width="514" height="40" as="geometry" />
        </mxCell>
        <mxCell id="BGvKS-bfmUBT8Ne4-ugD-10" value="&lt;u&gt;rec_id&lt;/u&gt;" style="shape=partialRectangle;html=1;whiteSpace=wrap;connectable=0;strokeColor=inherit;overflow=hidden;fillColor=none;top=0;left=0;bottom=0;right=0;pointerEvents=1;" vertex="1" parent="BGvKS-bfmUBT8Ne4-ugD-9">
          <mxGeometry width="64" height="40" as="geometry">
            <mxRectangle width="64" height="40" as="alternateBounds" />
          </mxGeometry>
        </mxCell>
        <mxCell id="NsjD4ry6fY5dDlFeeTJH-4" value="rec_name" style="shape=partialRectangle;html=1;whiteSpace=wrap;connectable=0;strokeColor=inherit;overflow=hidden;fillColor=none;top=0;left=0;bottom=0;right=0;pointerEvents=1;" vertex="1" parent="BGvKS-bfmUBT8Ne4-ugD-9">
          <mxGeometry x="64" width="64" height="40" as="geometry">
            <mxRectangle width="64" height="40" as="alternateBounds" />
          </mxGeometry>
        </mxCell>
        <mxCell id="BGvKS-bfmUBT8Ne4-ugD-11" value="dietary_type" style="shape=partialRectangle;html=1;whiteSpace=wrap;connectable=0;strokeColor=inherit;overflow=hidden;fillColor=none;top=0;left=0;bottom=0;right=0;pointerEvents=1;" vertex="1" parent="BGvKS-bfmUBT8Ne4-ugD-9">
          <mxGeometry x="128" width="86" height="40" as="geometry">
            <mxRectangle width="86" height="40" as="alternateBounds" />
          </mxGeometry>
        </mxCell>
        <mxCell id="BGvKS-bfmUBT8Ne4-ugD-12" value="description" style="shape=partialRectangle;html=1;whiteSpace=wrap;connectable=0;strokeColor=inherit;overflow=hidden;fillColor=none;top=0;left=0;bottom=0;right=0;pointerEvents=1;" vertex="1" parent="BGvKS-bfmUBT8Ne4-ugD-9">
          <mxGeometry x="214" width="75" height="40" as="geometry">
            <mxRectangle width="75" height="40" as="alternateBounds" />
          </mxGeometry>
        </mxCell>
        <mxCell id="BGvKS-bfmUBT8Ne4-ugD-13" value="image" style="shape=partialRectangle;html=1;whiteSpace=wrap;connectable=0;strokeColor=inherit;overflow=hidden;fillColor=none;top=0;left=0;bottom=0;right=0;pointerEvents=1;" vertex="1" parent="BGvKS-bfmUBT8Ne4-ugD-9">
          <mxGeometry x="289" width="55" height="40" as="geometry">
            <mxRectangle width="55" height="40" as="alternateBounds" />
          </mxGeometry>
        </mxCell>
        <mxCell id="BGvKS-bfmUBT8Ne4-ugD-115" value="creation_date" style="shape=partialRectangle;html=1;whiteSpace=wrap;connectable=0;strokeColor=inherit;overflow=hidden;fillColor=none;top=0;left=0;bottom=0;right=0;pointerEvents=1;" vertex="1" parent="BGvKS-bfmUBT8Ne4-ugD-9">
          <mxGeometry x="344" width="84" height="40" as="geometry">
            <mxRectangle width="84" height="40" as="alternateBounds" />
          </mxGeometry>
        </mxCell>
        <mxCell id="BGvKS-bfmUBT8Ne4-ugD-114" value="creator_id" style="shape=partialRectangle;html=1;whiteSpace=wrap;connectable=0;strokeColor=inherit;overflow=hidden;fillColor=none;top=0;left=0;bottom=0;right=0;pointerEvents=1;" vertex="1" parent="BGvKS-bfmUBT8Ne4-ugD-9">
          <mxGeometry x="428" width="86" height="40" as="geometry">
            <mxRectangle width="86" height="40" as="alternateBounds" />
          </mxGeometry>
        </mxCell>
        <mxCell id="BGvKS-bfmUBT8Ne4-ugD-15" value="INGREDIENTS" style="text;html=1;align=center;verticalAlign=middle;resizable=0;points=[];autosize=1;strokeColor=none;fillColor=none;" vertex="1" parent="1">
          <mxGeometry x="160" y="276" width="110" height="30" as="geometry" />
        </mxCell>
        <mxCell id="BGvKS-bfmUBT8Ne4-ugD-16" value="" style="shape=table;startSize=0;container=1;collapsible=0;childLayout=tableLayout;" vertex="1" parent="1">
          <mxGeometry x="160" y="306" width="240" height="40" as="geometry" />
        </mxCell>
        <mxCell id="BGvKS-bfmUBT8Ne4-ugD-17" value="" style="shape=tableRow;horizontal=0;startSize=0;swimlaneHead=0;swimlaneBody=0;strokeColor=inherit;top=0;left=0;bottom=0;right=0;collapsible=0;dropTarget=0;fillColor=none;points=[[0,0.5],[1,0.5]];portConstraint=eastwest;" vertex="1" parent="BGvKS-bfmUBT8Ne4-ugD-16">
          <mxGeometry width="240" height="40" as="geometry" />
        </mxCell>
        <mxCell id="BGvKS-bfmUBT8Ne4-ugD-18" value="&lt;u&gt;ing_id&lt;/u&gt;" style="shape=partialRectangle;html=1;whiteSpace=wrap;connectable=0;strokeColor=inherit;overflow=hidden;fillColor=none;top=0;left=0;bottom=0;right=0;pointerEvents=1;" vertex="1" parent="BGvKS-bfmUBT8Ne4-ugD-17">
          <mxGeometry width="60" height="40" as="geometry">
            <mxRectangle width="60" height="40" as="alternateBounds" />
          </mxGeometry>
        </mxCell>
        <mxCell id="NsjD4ry6fY5dDlFeeTJH-5" value="ing_name" style="shape=partialRectangle;html=1;whiteSpace=wrap;connectable=0;strokeColor=inherit;overflow=hidden;fillColor=none;top=0;left=0;bottom=0;right=0;pointerEvents=1;" vertex="1" parent="BGvKS-bfmUBT8Ne4-ugD-17">
          <mxGeometry x="60" width="60" height="40" as="geometry">
            <mxRectangle width="60" height="40" as="alternateBounds" />
          </mxGeometry>
        </mxCell>
        <mxCell id="BGvKS-bfmUBT8Ne4-ugD-19" value="price" style="shape=partialRectangle;html=1;whiteSpace=wrap;connectable=0;strokeColor=inherit;overflow=hidden;fillColor=none;top=0;left=0;bottom=0;right=0;pointerEvents=1;" vertex="1" parent="BGvKS-bfmUBT8Ne4-ugD-17">
          <mxGeometry x="120" width="50" height="40" as="geometry">
            <mxRectangle width="50" height="40" as="alternateBounds" />
          </mxGeometry>
        </mxCell>
        <mxCell id="BGvKS-bfmUBT8Ne4-ugD-20" value="description" style="shape=partialRectangle;html=1;whiteSpace=wrap;connectable=0;strokeColor=inherit;overflow=hidden;fillColor=none;top=0;left=0;bottom=0;right=0;pointerEvents=1;" vertex="1" parent="BGvKS-bfmUBT8Ne4-ugD-17">
          <mxGeometry x="170" width="70" height="40" as="geometry">
            <mxRectangle width="70" height="40" as="alternateBounds" />
          </mxGeometry>
        </mxCell>
        <mxCell id="BGvKS-bfmUBT8Ne4-ugD-22" value="MISUSE" style="text;html=1;align=center;verticalAlign=middle;resizable=0;points=[];autosize=1;strokeColor=none;fillColor=none;" vertex="1" parent="1">
          <mxGeometry x="160" y="370" width="70" height="30" as="geometry" />
        </mxCell>
        <mxCell id="BGvKS-bfmUBT8Ne4-ugD-23" value="" style="shape=table;startSize=0;container=1;collapsible=0;childLayout=tableLayout;" vertex="1" parent="1">
          <mxGeometry x="160" y="400" width="510" height="40" as="geometry" />
        </mxCell>
        <mxCell id="BGvKS-bfmUBT8Ne4-ugD-24" value="" style="shape=tableRow;horizontal=0;startSize=0;swimlaneHead=0;swimlaneBody=0;strokeColor=inherit;top=0;left=0;bottom=0;right=0;collapsible=0;dropTarget=0;fillColor=none;points=[[0,0.5],[1,0.5]];portConstraint=eastwest;" vertex="1" parent="BGvKS-bfmUBT8Ne4-ugD-23">
          <mxGeometry width="510" height="40" as="geometry" />
        </mxCell>
        <mxCell id="BGvKS-bfmUBT8Ne4-ugD-25" value="&lt;u&gt;reporter_id&lt;/u&gt;" style="shape=partialRectangle;html=1;whiteSpace=wrap;connectable=0;strokeColor=inherit;overflow=hidden;fillColor=none;top=0;left=0;bottom=0;right=0;pointerEvents=1;" vertex="1" parent="BGvKS-bfmUBT8Ne4-ugD-24">
          <mxGeometry width="90" height="40" as="geometry">
            <mxRectangle width="90" height="40" as="alternateBounds" />
          </mxGeometry>
        </mxCell>
        <mxCell id="BGvKS-bfmUBT8Ne4-ugD-29" value="&lt;u&gt;misuse_id&lt;/u&gt;" style="shape=partialRectangle;html=1;whiteSpace=wrap;connectable=0;strokeColor=inherit;overflow=hidden;fillColor=none;top=0;left=0;bottom=0;right=0;pointerEvents=1;" vertex="1" parent="BGvKS-bfmUBT8Ne4-ugD-24">
          <mxGeometry x="90" width="70" height="40" as="geometry">
            <mxRectangle width="70" height="40" as="alternateBounds" />
          </mxGeometry>
        </mxCell>
        <mxCell id="BGvKS-bfmUBT8Ne4-ugD-26" value="misuse_type" style="shape=partialRectangle;html=1;whiteSpace=wrap;connectable=0;strokeColor=inherit;overflow=hidden;fillColor=none;top=0;left=0;bottom=0;right=0;pointerEvents=1;" vertex="1" parent="BGvKS-bfmUBT8Ne4-ugD-24">
          <mxGeometry x="160" width="80" height="40" as="geometry">
            <mxRectangle width="80" height="40" as="alternateBounds" />
          </mxGeometry>
        </mxCell>
        <mxCell id="BGvKS-bfmUBT8Ne4-ugD-27" value="misuse_content" style="shape=partialRectangle;html=1;whiteSpace=wrap;connectable=0;strokeColor=inherit;overflow=hidden;fillColor=none;top=0;left=0;bottom=0;right=0;pointerEvents=1;" vertex="1" parent="BGvKS-bfmUBT8Ne4-ugD-24">
          <mxGeometry x="240" width="100" height="40" as="geometry">
            <mxRectangle width="100" height="40" as="alternateBounds" />
          </mxGeometry>
        </mxCell>
        <mxCell id="BGvKS-bfmUBT8Ne4-ugD-149" value="replier_admin_id" style="shape=partialRectangle;html=1;whiteSpace=wrap;connectable=0;strokeColor=inherit;overflow=hidden;fillColor=none;top=0;left=0;bottom=0;right=0;pointerEvents=1;" vertex="1" parent="BGvKS-bfmUBT8Ne4-ugD-24">
          <mxGeometry x="340" width="120" height="40" as="geometry">
            <mxRectangle width="120" height="40" as="alternateBounds" />
          </mxGeometry>
        </mxCell>
        <mxCell id="BGvKS-bfmUBT8Ne4-ugD-148" value="reply" style="shape=partialRectangle;html=1;whiteSpace=wrap;connectable=0;strokeColor=inherit;overflow=hidden;fillColor=none;top=0;left=0;bottom=0;right=0;pointerEvents=1;" vertex="1" parent="BGvKS-bfmUBT8Ne4-ugD-24">
          <mxGeometry x="460" width="50" height="40" as="geometry">
            <mxRectangle width="50" height="40" as="alternateBounds" />
          </mxGeometry>
        </mxCell>
        <mxCell id="BGvKS-bfmUBT8Ne4-ugD-31" style="edgeStyle=orthogonalEdgeStyle;rounded=0;orthogonalLoop=1;jettySize=auto;html=1;exitX=0.084;exitY=1.013;exitDx=0;exitDy=0;exitPerimeter=0;fillColor=#f8cecc;strokeColor=#b85450;" edge="1" parent="1" source="BGvKS-bfmUBT8Ne4-ugD-24" target="SH9UqQtt1yjxoyA9mRzl-3">
          <mxGeometry relative="1" as="geometry">
            <mxPoint x="264" y="60" as="targetPoint" />
            <Array as="points">
              <mxPoint x="186" y="470" />
              <mxPoint x="130" y="470" />
              <mxPoint x="130" y="140" />
              <mxPoint x="270" y="140" />
            </Array>
          </mxGeometry>
        </mxCell>
        <mxCell id="BGvKS-bfmUBT8Ne4-ugD-34" value="FOLLOWS" style="text;html=1;align=center;verticalAlign=middle;resizable=0;points=[];autosize=1;strokeColor=none;fillColor=none;" vertex="1" parent="1">
          <mxGeometry x="160" y="492" width="80" height="30" as="geometry" />
        </mxCell>
        <mxCell id="BGvKS-bfmUBT8Ne4-ugD-35" value="" style="shape=table;startSize=0;container=1;collapsible=0;childLayout=tableLayout;" vertex="1" parent="1">
          <mxGeometry x="160" y="522" width="230" height="42" as="geometry" />
        </mxCell>
        <mxCell id="BGvKS-bfmUBT8Ne4-ugD-36" value="" style="shape=tableRow;horizontal=0;startSize=0;swimlaneHead=0;swimlaneBody=0;strokeColor=inherit;top=0;left=0;bottom=0;right=0;collapsible=0;dropTarget=0;fillColor=none;points=[[0,0.5],[1,0.5]];portConstraint=eastwest;" vertex="1" parent="BGvKS-bfmUBT8Ne4-ugD-35">
          <mxGeometry width="230" height="42" as="geometry" />
        </mxCell>
        <mxCell id="BGvKS-bfmUBT8Ne4-ugD-37" value="follower_id" style="shape=partialRectangle;html=1;whiteSpace=wrap;connectable=0;strokeColor=inherit;overflow=hidden;fillColor=none;top=0;left=0;bottom=0;right=0;pointerEvents=1;" vertex="1" parent="BGvKS-bfmUBT8Ne4-ugD-36">
          <mxGeometry width="115" height="42" as="geometry">
            <mxRectangle width="115" height="42" as="alternateBounds" />
          </mxGeometry>
        </mxCell>
        <mxCell id="BGvKS-bfmUBT8Ne4-ugD-38" value="following_id" style="shape=partialRectangle;html=1;whiteSpace=wrap;connectable=0;strokeColor=inherit;overflow=hidden;fillColor=none;top=0;left=0;bottom=0;right=0;pointerEvents=1;" vertex="1" parent="BGvKS-bfmUBT8Ne4-ugD-36">
          <mxGeometry x="115" width="115" height="42" as="geometry">
            <mxRectangle width="115" height="42" as="alternateBounds" />
          </mxGeometry>
        </mxCell>
        <mxCell id="BGvKS-bfmUBT8Ne4-ugD-39" value="DM" style="text;html=1;align=center;verticalAlign=middle;resizable=0;points=[];autosize=1;strokeColor=none;fillColor=none;" vertex="1" parent="1">
          <mxGeometry x="160" y="610" width="40" height="30" as="geometry" />
        </mxCell>
        <mxCell id="BGvKS-bfmUBT8Ne4-ugD-40" value="" style="shape=table;startSize=0;container=1;collapsible=0;childLayout=tableLayout;" vertex="1" parent="1">
          <mxGeometry x="160" y="640" width="310" height="40" as="geometry" />
        </mxCell>
        <mxCell id="BGvKS-bfmUBT8Ne4-ugD-41" value="" style="shape=tableRow;horizontal=0;startSize=0;swimlaneHead=0;swimlaneBody=0;strokeColor=inherit;top=0;left=0;bottom=0;right=0;collapsible=0;dropTarget=0;fillColor=none;points=[[0,0.5],[1,0.5]];portConstraint=eastwest;" vertex="1" parent="BGvKS-bfmUBT8Ne4-ugD-40">
          <mxGeometry width="310" height="40" as="geometry" />
        </mxCell>
        <mxCell id="BGvKS-bfmUBT8Ne4-ugD-42" value="follower_id" style="shape=partialRectangle;html=1;whiteSpace=wrap;connectable=0;strokeColor=inherit;overflow=hidden;fillColor=none;top=0;left=0;bottom=0;right=0;pointerEvents=1;" vertex="1" parent="BGvKS-bfmUBT8Ne4-ugD-41">
          <mxGeometry width="110" height="40" as="geometry">
            <mxRectangle width="110" height="40" as="alternateBounds" />
          </mxGeometry>
        </mxCell>
        <mxCell id="BGvKS-bfmUBT8Ne4-ugD-43" value="following_id" style="shape=partialRectangle;html=1;whiteSpace=wrap;connectable=0;strokeColor=inherit;overflow=hidden;fillColor=none;top=0;left=0;bottom=0;right=0;pointerEvents=1;" vertex="1" parent="BGvKS-bfmUBT8Ne4-ugD-41">
          <mxGeometry x="110" width="120" height="40" as="geometry">
            <mxRectangle width="120" height="40" as="alternateBounds" />
          </mxGeometry>
        </mxCell>
        <mxCell id="BGvKS-bfmUBT8Ne4-ugD-44" value="dm_content" style="shape=partialRectangle;html=1;whiteSpace=wrap;connectable=0;strokeColor=inherit;overflow=hidden;fillColor=none;top=0;left=0;bottom=0;right=0;pointerEvents=1;" vertex="1" parent="BGvKS-bfmUBT8Ne4-ugD-41">
          <mxGeometry x="230" width="80" height="40" as="geometry">
            <mxRectangle width="80" height="40" as="alternateBounds" />
          </mxGeometry>
        </mxCell>
        <mxCell id="BGvKS-bfmUBT8Ne4-ugD-45" style="edgeStyle=orthogonalEdgeStyle;rounded=0;orthogonalLoop=1;jettySize=auto;html=1;exitX=0.147;exitY=0.985;exitDx=0;exitDy=0;exitPerimeter=0;fillColor=#d5e8d4;strokeColor=#82b366;" edge="1" parent="1" source="BGvKS-bfmUBT8Ne4-ugD-36" target="SH9UqQtt1yjxoyA9mRzl-3">
          <mxGeometry relative="1" as="geometry">
            <mxPoint x="250" y="56" as="targetPoint" />
            <Array as="points">
              <mxPoint x="194" y="590" />
              <mxPoint x="100" y="590" />
              <mxPoint x="100" y="130" />
              <mxPoint x="260" y="130" />
            </Array>
          </mxGeometry>
        </mxCell>
        <mxCell id="BGvKS-bfmUBT8Ne4-ugD-47" style="edgeStyle=orthogonalEdgeStyle;rounded=0;orthogonalLoop=1;jettySize=auto;html=1;fillColor=#dae8fc;strokeColor=#6c8ebf;" edge="1" parent="1" target="SH9UqQtt1yjxoyA9mRzl-3">
          <mxGeometry relative="1" as="geometry">
            <mxPoint x="315" y="680" as="sourcePoint" />
            <mxPoint x="202" y="58" as="targetPoint" />
            <Array as="points">
              <mxPoint x="315" y="730" />
              <mxPoint x="10" y="730" />
              <mxPoint x="10" y="100" />
              <mxPoint x="230" y="100" />
              <mxPoint x="230" y="58" />
              <mxPoint x="231" y="58" />
            </Array>
          </mxGeometry>
        </mxCell>
        <mxCell id="BGvKS-bfmUBT8Ne4-ugD-48" style="edgeStyle=orthogonalEdgeStyle;rounded=0;orthogonalLoop=1;jettySize=auto;html=1;exitX=0.099;exitY=0.997;exitDx=0;exitDy=0;exitPerimeter=0;fillColor=#1ba1e2;strokeColor=#006EAF;" edge="1" parent="1" source="BGvKS-bfmUBT8Ne4-ugD-41" target="SH9UqQtt1yjxoyA9mRzl-3">
          <mxGeometry relative="1" as="geometry">
            <mxPoint x="202" y="60" as="targetPoint" />
            <Array as="points">
              <mxPoint x="191" y="710" />
              <mxPoint x="40" y="710" />
              <mxPoint x="40" y="110" />
              <mxPoint x="240" y="110" />
            </Array>
          </mxGeometry>
        </mxCell>
        <mxCell id="BGvKS-bfmUBT8Ne4-ugD-56" style="edgeStyle=orthogonalEdgeStyle;rounded=0;orthogonalLoop=1;jettySize=auto;html=1;exitX=0.724;exitY=1.053;exitDx=0;exitDy=0;exitPerimeter=0;fillColor=#008a00;strokeColor=#005700;" edge="1" parent="1" source="BGvKS-bfmUBT8Ne4-ugD-36" target="SH9UqQtt1yjxoyA9mRzl-3">
          <mxGeometry relative="1" as="geometry">
            <mxPoint x="200" y="76" as="targetPoint" />
            <Array as="points">
              <mxPoint x="327" y="610" />
              <mxPoint x="70" y="610" />
              <mxPoint x="70" y="120" />
              <mxPoint x="250" y="120" />
            </Array>
          </mxGeometry>
        </mxCell>
        <mxCell id="BGvKS-bfmUBT8Ne4-ugD-57" value="RATES" style="text;html=1;align=center;verticalAlign=middle;resizable=0;points=[];autosize=1;strokeColor=none;fillColor=none;" vertex="1" parent="1">
          <mxGeometry x="160" y="750" width="60" height="30" as="geometry" />
        </mxCell>
        <mxCell id="BGvKS-bfmUBT8Ne4-ugD-58" value="" style="shape=table;startSize=0;container=1;collapsible=0;childLayout=tableLayout;" vertex="1" parent="1">
          <mxGeometry x="160" y="780" width="310" height="40" as="geometry" />
        </mxCell>
        <mxCell id="BGvKS-bfmUBT8Ne4-ugD-59" value="" style="shape=tableRow;horizontal=0;startSize=0;swimlaneHead=0;swimlaneBody=0;strokeColor=inherit;top=0;left=0;bottom=0;right=0;collapsible=0;dropTarget=0;fillColor=none;points=[[0,0.5],[1,0.5]];portConstraint=eastwest;" vertex="1" parent="BGvKS-bfmUBT8Ne4-ugD-58">
          <mxGeometry width="310" height="40" as="geometry" />
        </mxCell>
        <mxCell id="BGvKS-bfmUBT8Ne4-ugD-60" value="&lt;u&gt;user_id&lt;/u&gt;" style="shape=partialRectangle;html=1;whiteSpace=wrap;connectable=0;strokeColor=inherit;overflow=hidden;fillColor=none;top=0;left=0;bottom=0;right=0;pointerEvents=1;" vertex="1" parent="BGvKS-bfmUBT8Ne4-ugD-59">
          <mxGeometry width="62" height="40" as="geometry">
            <mxRectangle width="62" height="40" as="alternateBounds" />
          </mxGeometry>
        </mxCell>
        <mxCell id="BGvKS-bfmUBT8Ne4-ugD-61" value="&lt;u&gt;rec_name&lt;/u&gt;" style="shape=partialRectangle;html=1;whiteSpace=wrap;connectable=0;strokeColor=inherit;overflow=hidden;fillColor=none;top=0;left=0;bottom=0;right=0;pointerEvents=1;" vertex="1" parent="BGvKS-bfmUBT8Ne4-ugD-59">
          <mxGeometry x="62" width="78" height="40" as="geometry">
            <mxRectangle width="78" height="40" as="alternateBounds" />
          </mxGeometry>
        </mxCell>
        <mxCell id="BGvKS-bfmUBT8Ne4-ugD-62" value="rate_date" style="shape=partialRectangle;html=1;whiteSpace=wrap;connectable=0;strokeColor=inherit;overflow=hidden;fillColor=none;top=0;left=0;bottom=0;right=0;pointerEvents=1;" vertex="1" parent="BGvKS-bfmUBT8Ne4-ugD-59">
          <mxGeometry x="140" width="60" height="40" as="geometry">
            <mxRectangle width="60" height="40" as="alternateBounds" />
          </mxGeometry>
        </mxCell>
        <mxCell id="BGvKS-bfmUBT8Ne4-ugD-63" value="taste" style="shape=partialRectangle;html=1;whiteSpace=wrap;connectable=0;strokeColor=inherit;overflow=hidden;fillColor=none;top=0;left=0;bottom=0;right=0;pointerEvents=1;" vertex="1" parent="BGvKS-bfmUBT8Ne4-ugD-59">
          <mxGeometry x="200" width="40" height="40" as="geometry">
            <mxRectangle width="40" height="40" as="alternateBounds" />
          </mxGeometry>
        </mxCell>
        <mxCell id="BGvKS-bfmUBT8Ne4-ugD-64" value="prep_ease" style="shape=partialRectangle;html=1;whiteSpace=wrap;connectable=0;strokeColor=inherit;overflow=hidden;fillColor=none;top=0;left=0;bottom=0;right=0;pointerEvents=1;" vertex="1" parent="BGvKS-bfmUBT8Ne4-ugD-59">
          <mxGeometry x="240" width="70" height="40" as="geometry">
            <mxRectangle width="70" height="40" as="alternateBounds" />
          </mxGeometry>
        </mxCell>
        <mxCell id="BGvKS-bfmUBT8Ne4-ugD-65" value="COMMENTS" style="text;html=1;align=center;verticalAlign=middle;resizable=0;points=[];autosize=1;strokeColor=none;fillColor=none;" vertex="1" parent="1">
          <mxGeometry x="160" y="870" width="90" height="30" as="geometry" />
        </mxCell>
        <mxCell id="BGvKS-bfmUBT8Ne4-ugD-66" value="" style="shape=table;startSize=0;container=1;collapsible=0;childLayout=tableLayout;" vertex="1" parent="1">
          <mxGeometry x="160" y="900" width="330" height="40" as="geometry" />
        </mxCell>
        <mxCell id="BGvKS-bfmUBT8Ne4-ugD-67" value="" style="shape=tableRow;horizontal=0;startSize=0;swimlaneHead=0;swimlaneBody=0;strokeColor=inherit;top=0;left=0;bottom=0;right=0;collapsible=0;dropTarget=0;fillColor=none;points=[[0,0.5],[1,0.5]];portConstraint=eastwest;" vertex="1" parent="BGvKS-bfmUBT8Ne4-ugD-66">
          <mxGeometry width="330" height="40" as="geometry" />
        </mxCell>
        <mxCell id="BGvKS-bfmUBT8Ne4-ugD-68" value="&lt;u style=&quot;border-color: var(--border-color);&quot;&gt;username&lt;/u&gt;" style="shape=partialRectangle;html=1;whiteSpace=wrap;connectable=0;strokeColor=inherit;overflow=hidden;fillColor=none;top=0;left=0;bottom=0;right=0;pointerEvents=1;" vertex="1" parent="BGvKS-bfmUBT8Ne4-ugD-67">
          <mxGeometry width="83" height="40" as="geometry">
            <mxRectangle width="83" height="40" as="alternateBounds" />
          </mxGeometry>
        </mxCell>
        <mxCell id="BGvKS-bfmUBT8Ne4-ugD-69" value="&lt;u style=&quot;border-color: var(--border-color);&quot;&gt;rec_name&lt;/u&gt;" style="shape=partialRectangle;html=1;whiteSpace=wrap;connectable=0;strokeColor=inherit;overflow=hidden;fillColor=none;top=0;left=0;bottom=0;right=0;pointerEvents=1;" vertex="1" parent="BGvKS-bfmUBT8Ne4-ugD-67">
          <mxGeometry x="83" width="82" height="40" as="geometry">
            <mxRectangle width="82" height="40" as="alternateBounds" />
          </mxGeometry>
        </mxCell>
        <mxCell id="BGvKS-bfmUBT8Ne4-ugD-70" value="comm_date" style="shape=partialRectangle;html=1;whiteSpace=wrap;connectable=0;strokeColor=inherit;overflow=hidden;fillColor=none;top=0;left=0;bottom=0;right=0;pointerEvents=1;" vertex="1" parent="BGvKS-bfmUBT8Ne4-ugD-67">
          <mxGeometry x="165" width="75" height="40" as="geometry">
            <mxRectangle width="75" height="40" as="alternateBounds" />
          </mxGeometry>
        </mxCell>
        <mxCell id="BGvKS-bfmUBT8Ne4-ugD-71" value="comm_content" style="shape=partialRectangle;html=1;whiteSpace=wrap;connectable=0;strokeColor=inherit;overflow=hidden;fillColor=none;top=0;left=0;bottom=0;right=0;pointerEvents=1;" vertex="1" parent="BGvKS-bfmUBT8Ne4-ugD-67">
          <mxGeometry x="240" width="90" height="40" as="geometry">
            <mxRectangle width="90" height="40" as="alternateBounds" />
          </mxGeometry>
        </mxCell>
        <mxCell id="BGvKS-bfmUBT8Ne4-ugD-72" value="RECIPES_INGREDIENTS" style="text;html=1;align=center;verticalAlign=middle;resizable=0;points=[];autosize=1;strokeColor=none;fillColor=none;" vertex="1" parent="1">
          <mxGeometry x="160" y="978" width="160" height="30" as="geometry" />
        </mxCell>
        <mxCell id="BGvKS-bfmUBT8Ne4-ugD-73" value="" style="shape=table;startSize=0;container=1;collapsible=0;childLayout=tableLayout;" vertex="1" parent="1">
          <mxGeometry x="160" y="1008" width="180" height="40" as="geometry" />
        </mxCell>
        <mxCell id="BGvKS-bfmUBT8Ne4-ugD-74" value="" style="shape=tableRow;horizontal=0;startSize=0;swimlaneHead=0;swimlaneBody=0;strokeColor=inherit;top=0;left=0;bottom=0;right=0;collapsible=0;dropTarget=0;fillColor=none;points=[[0,0.5],[1,0.5]];portConstraint=eastwest;" vertex="1" parent="BGvKS-bfmUBT8Ne4-ugD-73">
          <mxGeometry width="180" height="40" as="geometry" />
        </mxCell>
        <mxCell id="BGvKS-bfmUBT8Ne4-ugD-75" value="&lt;u&gt;rec_id&lt;/u&gt;" style="shape=partialRectangle;html=1;whiteSpace=wrap;connectable=0;strokeColor=inherit;overflow=hidden;fillColor=none;top=0;left=0;bottom=0;right=0;pointerEvents=1;" vertex="1" parent="BGvKS-bfmUBT8Ne4-ugD-74">
          <mxGeometry width="60" height="40" as="geometry">
            <mxRectangle width="60" height="40" as="alternateBounds" />
          </mxGeometry>
        </mxCell>
        <mxCell id="BGvKS-bfmUBT8Ne4-ugD-76" value="&lt;u&gt;ing_id&lt;/u&gt;" style="shape=partialRectangle;html=1;whiteSpace=wrap;connectable=0;strokeColor=inherit;overflow=hidden;fillColor=none;top=0;left=0;bottom=0;right=0;pointerEvents=1;" vertex="1" parent="BGvKS-bfmUBT8Ne4-ugD-74">
          <mxGeometry x="60" width="60" height="40" as="geometry">
            <mxRectangle width="60" height="40" as="alternateBounds" />
          </mxGeometry>
        </mxCell>
        <mxCell id="BGvKS-bfmUBT8Ne4-ugD-77" value="amount" style="shape=partialRectangle;html=1;whiteSpace=wrap;connectable=0;strokeColor=inherit;overflow=hidden;fillColor=none;top=0;left=0;bottom=0;right=0;pointerEvents=1;" vertex="1" parent="BGvKS-bfmUBT8Ne4-ugD-74">
          <mxGeometry x="120" width="60" height="40" as="geometry">
            <mxRectangle width="60" height="40" as="alternateBounds" />
          </mxGeometry>
        </mxCell>
        <mxCell id="BGvKS-bfmUBT8Ne4-ugD-78" style="edgeStyle=orthogonalEdgeStyle;rounded=0;orthogonalLoop=1;jettySize=auto;html=1;fillColor=#e1d5e7;strokeColor=#9673a6;exitX=0.066;exitY=1.025;exitDx=0;exitDy=0;exitPerimeter=0;" edge="1" parent="1" source="BGvKS-bfmUBT8Ne4-ugD-59" target="SH9UqQtt1yjxoyA9mRzl-3">
          <mxGeometry relative="1" as="geometry">
            <mxPoint x="186" y="60" as="targetPoint" />
            <Array as="points">
              <mxPoint x="181" y="840" />
              <mxPoint x="-20" y="840" />
              <mxPoint x="-20" y="90" />
              <mxPoint x="220" y="90" />
            </Array>
          </mxGeometry>
        </mxCell>
        <mxCell id="BGvKS-bfmUBT8Ne4-ugD-85" style="edgeStyle=orthogonalEdgeStyle;rounded=0;orthogonalLoop=1;jettySize=auto;html=1;fillColor=#d5e8d4;strokeColor=#82b366;exitX=0.062;exitY=1.092;exitDx=0;exitDy=0;exitPerimeter=0;gradientColor=#97d077;" edge="1" parent="1" source="BGvKS-bfmUBT8Ne4-ugD-67" target="SH9UqQtt1yjxoyA9mRzl-3">
          <mxGeometry relative="1" as="geometry">
            <mxPoint x="-5" y="40.066666666666606" as="targetPoint" />
            <Array as="points">
              <mxPoint x="180" y="970" />
              <mxPoint x="-40" y="970" />
              <mxPoint x="-40" y="80" />
              <mxPoint x="210" y="80" />
            </Array>
          </mxGeometry>
        </mxCell>
        <mxCell id="BGvKS-bfmUBT8Ne4-ugD-93" style="edgeStyle=orthogonalEdgeStyle;rounded=0;orthogonalLoop=1;jettySize=auto;html=1;exitX=0.311;exitY=1.092;exitDx=0;exitDy=0;exitPerimeter=0;fillColor=#6a00ff;strokeColor=#3700CC;" edge="1" parent="1" source="BGvKS-bfmUBT8Ne4-ugD-59">
          <mxGeometry relative="1" as="geometry">
            <mxPoint x="166" y="210" as="targetPoint" />
            <Array as="points">
              <mxPoint x="256" y="840" />
              <mxPoint x="710" y="840" />
              <mxPoint x="710" y="270" />
              <mxPoint x="166" y="270" />
            </Array>
          </mxGeometry>
        </mxCell>
        <mxCell id="BGvKS-bfmUBT8Ne4-ugD-94" style="edgeStyle=orthogonalEdgeStyle;rounded=0;orthogonalLoop=1;jettySize=auto;html=1;exitX=0.34;exitY=1.092;exitDx=0;exitDy=0;exitPerimeter=0;fillColor=#fa6800;strokeColor=#C73500;" edge="1" parent="1" source="BGvKS-bfmUBT8Ne4-ugD-67">
          <mxGeometry relative="1" as="geometry">
            <mxPoint x="180" y="210" as="targetPoint" />
            <Array as="points">
              <mxPoint x="272" y="970" />
              <mxPoint x="730" y="970" />
              <mxPoint x="730" y="250" />
              <mxPoint x="180" y="250" />
            </Array>
          </mxGeometry>
        </mxCell>
        <mxCell id="BGvKS-bfmUBT8Ne4-ugD-95" style="edgeStyle=orthogonalEdgeStyle;rounded=0;orthogonalLoop=1;jettySize=auto;html=1;fillColor=#60a917;strokeColor=#2D7600;" edge="1" parent="1" source="BGvKS-bfmUBT8Ne4-ugD-74" target="BGvKS-bfmUBT8Ne4-ugD-17">
          <mxGeometry relative="1" as="geometry">
            <Array as="points">
              <mxPoint x="250" y="1080" />
              <mxPoint x="690" y="1080" />
              <mxPoint x="690" y="370" />
              <mxPoint x="199" y="370" />
            </Array>
          </mxGeometry>
        </mxCell>
        <mxCell id="BGvKS-bfmUBT8Ne4-ugD-96" style="edgeStyle=orthogonalEdgeStyle;rounded=0;orthogonalLoop=1;jettySize=auto;html=1;exitX=0.135;exitY=1.058;exitDx=0;exitDy=0;exitPerimeter=0;" edge="1" parent="1" source="BGvKS-bfmUBT8Ne4-ugD-74">
          <mxGeometry relative="1" as="geometry">
            <mxPoint x="202" y="208" as="targetPoint" />
            <Array as="points">
              <mxPoint x="184" y="1100" />
              <mxPoint x="750" y="1100" />
              <mxPoint x="750" y="240" />
              <mxPoint x="202" y="240" />
            </Array>
          </mxGeometry>
        </mxCell>
        <mxCell id="BGvKS-bfmUBT8Ne4-ugD-99" value="" style="shape=table;startSize=0;container=1;collapsible=0;childLayout=tableLayout;fontSize=16;" vertex="1" parent="1">
          <mxGeometry x="160" y="-135" width="660" height="40" as="geometry" />
        </mxCell>
        <mxCell id="BGvKS-bfmUBT8Ne4-ugD-100" value="" style="shape=tableRow;horizontal=0;startSize=0;swimlaneHead=0;swimlaneBody=0;strokeColor=inherit;top=0;left=0;bottom=0;right=0;collapsible=0;dropTarget=0;fillColor=none;points=[[0,0.5],[1,0.5]];portConstraint=eastwest;fontSize=16;" vertex="1" parent="BGvKS-bfmUBT8Ne4-ugD-99">
          <mxGeometry width="660" height="40" as="geometry" />
        </mxCell>
        <mxCell id="BGvKS-bfmUBT8Ne4-ugD-101" value="&lt;u&gt;user_id&lt;/u&gt;" style="shape=partialRectangle;html=1;whiteSpace=wrap;connectable=0;strokeColor=inherit;overflow=hidden;fillColor=none;top=0;left=0;bottom=0;right=0;pointerEvents=1;fontSize=16;" vertex="1" parent="BGvKS-bfmUBT8Ne4-ugD-100">
          <mxGeometry width="110" height="40" as="geometry">
            <mxRectangle width="110" height="40" as="alternateBounds" />
          </mxGeometry>
        </mxCell>
        <mxCell id="NsjD4ry6fY5dDlFeeTJH-1" value="username" style="shape=partialRectangle;html=1;whiteSpace=wrap;connectable=0;strokeColor=inherit;overflow=hidden;fillColor=none;top=0;left=0;bottom=0;right=0;pointerEvents=1;fontSize=16;" vertex="1" parent="BGvKS-bfmUBT8Ne4-ugD-100">
          <mxGeometry x="110" width="110" height="40" as="geometry">
            <mxRectangle width="110" height="40" as="alternateBounds" />
          </mxGeometry>
        </mxCell>
        <mxCell id="BGvKS-bfmUBT8Ne4-ugD-102" value="email" style="shape=partialRectangle;html=1;whiteSpace=wrap;connectable=0;strokeColor=inherit;overflow=hidden;fillColor=none;top=0;left=0;bottom=0;right=0;pointerEvents=1;fontSize=16;" vertex="1" parent="BGvKS-bfmUBT8Ne4-ugD-100">
          <mxGeometry x="220" width="60" height="40" as="geometry">
            <mxRectangle width="60" height="40" as="alternateBounds" />
          </mxGeometry>
        </mxCell>
        <mxCell id="BGvKS-bfmUBT8Ne4-ugD-103" value="first_name" style="shape=partialRectangle;html=1;whiteSpace=wrap;connectable=0;strokeColor=inherit;overflow=hidden;fillColor=none;top=0;left=0;bottom=0;right=0;pointerEvents=1;fontSize=16;align=center;" vertex="1" parent="BGvKS-bfmUBT8Ne4-ugD-100">
          <mxGeometry x="280" width="80" height="40" as="geometry">
            <mxRectangle width="80" height="40" as="alternateBounds" />
          </mxGeometry>
        </mxCell>
        <mxCell id="BGvKS-bfmUBT8Ne4-ugD-104" value="last_name" style="shape=partialRectangle;html=1;whiteSpace=wrap;connectable=0;strokeColor=inherit;overflow=hidden;fillColor=none;top=0;left=0;bottom=0;right=0;pointerEvents=1;fontSize=16;" vertex="1" parent="BGvKS-bfmUBT8Ne4-ugD-100">
          <mxGeometry x="360" width="80" height="40" as="geometry">
            <mxRectangle width="80" height="40" as="alternateBounds" />
          </mxGeometry>
        </mxCell>
        <mxCell id="BGvKS-bfmUBT8Ne4-ugD-105" value="avatar" style="shape=partialRectangle;html=1;whiteSpace=wrap;connectable=0;strokeColor=inherit;overflow=hidden;fillColor=none;top=0;left=0;bottom=0;right=0;pointerEvents=1;fontSize=16;align=center;" vertex="1" parent="BGvKS-bfmUBT8Ne4-ugD-100">
          <mxGeometry x="440" width="60" height="40" as="geometry">
            <mxRectangle width="60" height="40" as="alternateBounds" />
          </mxGeometry>
        </mxCell>
        <mxCell id="BGvKS-bfmUBT8Ne4-ugD-106" value="password" style="shape=partialRectangle;html=1;whiteSpace=wrap;connectable=0;strokeColor=inherit;overflow=hidden;fillColor=none;top=0;left=0;bottom=0;right=0;pointerEvents=1;fontSize=16;" vertex="1" parent="BGvKS-bfmUBT8Ne4-ugD-100">
          <mxGeometry x="500" width="80" height="40" as="geometry">
            <mxRectangle width="80" height="40" as="alternateBounds" />
          </mxGeometry>
        </mxCell>
        <mxCell id="BGvKS-bfmUBT8Ne4-ugD-107" value="user_type" style="shape=partialRectangle;html=1;whiteSpace=wrap;connectable=0;strokeColor=inherit;overflow=hidden;fillColor=none;top=0;left=0;bottom=0;right=0;pointerEvents=1;fontSize=16;" vertex="1" parent="BGvKS-bfmUBT8Ne4-ugD-100">
          <mxGeometry x="580" width="80" height="40" as="geometry">
            <mxRectangle width="80" height="40" as="alternateBounds" />
          </mxGeometry>
        </mxCell>
        <mxCell id="BGvKS-bfmUBT8Ne4-ugD-111" value="ADMIN_USER" style="text;html=1;align=center;verticalAlign=middle;resizable=0;points=[];autosize=1;strokeColor=none;fillColor=none;" vertex="1" parent="1">
          <mxGeometry x="160" y="-165" width="100" height="30" as="geometry" />
        </mxCell>
        <mxCell id="BGvKS-bfmUBT8Ne4-ugD-116" style="edgeStyle=orthogonalEdgeStyle;rounded=0;orthogonalLoop=1;jettySize=auto;html=1;exitX=0.902;exitY=1.05;exitDx=0;exitDy=0;exitPerimeter=0;fillColor=#1ba1e2;strokeColor=#006EAF;" edge="1" parent="1" source="BGvKS-bfmUBT8Ne4-ugD-9" target="SH9UqQtt1yjxoyA9mRzl-3">
          <mxGeometry relative="1" as="geometry">
            <Array as="points">
              <mxPoint x="624" y="220" />
              <mxPoint x="710" y="220" />
              <mxPoint x="710" y="111" />
              <mxPoint x="285" y="111" />
            </Array>
          </mxGeometry>
        </mxCell>
        <mxCell id="BGvKS-bfmUBT8Ne4-ugD-119" value="REQUEST_BT" style="text;html=1;align=center;verticalAlign=middle;resizable=0;points=[];autosize=1;strokeColor=none;fillColor=none;" vertex="1" parent="1">
          <mxGeometry x="160" y="1120" width="100" height="30" as="geometry" />
        </mxCell>
        <mxCell id="BGvKS-bfmUBT8Ne4-ugD-120" value="REPLY_BT" style="text;html=1;align=center;verticalAlign=middle;resizable=0;points=[];autosize=1;strokeColor=none;fillColor=none;" vertex="1" parent="1">
          <mxGeometry x="160" y="1220" width="80" height="30" as="geometry" />
        </mxCell>
        <mxCell id="BGvKS-bfmUBT8Ne4-ugD-121" value="" style="shape=table;startSize=0;container=1;collapsible=0;childLayout=tableLayout;" vertex="1" parent="1">
          <mxGeometry x="160" y="1150" width="230" height="40" as="geometry" />
        </mxCell>
        <mxCell id="BGvKS-bfmUBT8Ne4-ugD-122" value="" style="shape=tableRow;horizontal=0;startSize=0;swimlaneHead=0;swimlaneBody=0;strokeColor=inherit;top=0;left=0;bottom=0;right=0;collapsible=0;dropTarget=0;fillColor=none;points=[[0,0.5],[1,0.5]];portConstraint=eastwest;" vertex="1" parent="BGvKS-bfmUBT8Ne4-ugD-121">
          <mxGeometry width="230" height="40" as="geometry" />
        </mxCell>
        <mxCell id="BGvKS-bfmUBT8Ne4-ugD-123" value="requester_id" style="shape=partialRectangle;html=1;whiteSpace=wrap;connectable=0;strokeColor=inherit;overflow=hidden;fillColor=none;top=0;left=0;bottom=0;right=0;pointerEvents=1;" vertex="1" parent="BGvKS-bfmUBT8Ne4-ugD-122">
          <mxGeometry width="115" height="40" as="geometry">
            <mxRectangle width="115" height="40" as="alternateBounds" />
          </mxGeometry>
        </mxCell>
        <mxCell id="BGvKS-bfmUBT8Ne4-ugD-124" value="admin_id" style="shape=partialRectangle;html=1;whiteSpace=wrap;connectable=0;strokeColor=inherit;overflow=hidden;fillColor=none;top=0;left=0;bottom=0;right=0;pointerEvents=1;" vertex="1" parent="BGvKS-bfmUBT8Ne4-ugD-122">
          <mxGeometry x="115" width="115" height="40" as="geometry">
            <mxRectangle width="115" height="40" as="alternateBounds" />
          </mxGeometry>
        </mxCell>
        <mxCell id="BGvKS-bfmUBT8Ne4-ugD-131" style="edgeStyle=orthogonalEdgeStyle;rounded=0;orthogonalLoop=1;jettySize=auto;html=1;exitX=0.205;exitY=1.106;exitDx=0;exitDy=0;exitPerimeter=0;fillColor=#e3c800;strokeColor=#B09500;" edge="1" parent="1" source="BGvKS-bfmUBT8Ne4-ugD-126" target="SH9UqQtt1yjxoyA9mRzl-3">
          <mxGeometry relative="1" as="geometry">
            <Array as="points">
              <mxPoint x="220" y="1310" />
              <mxPoint x="-80" y="1310" />
              <mxPoint x="-80" y="60" />
              <mxPoint x="186" y="60" />
            </Array>
          </mxGeometry>
        </mxCell>
        <mxCell id="BGvKS-bfmUBT8Ne4-ugD-125" value="" style="shape=table;startSize=0;container=1;collapsible=0;childLayout=tableLayout;" vertex="1" parent="1">
          <mxGeometry x="160" y="1250" width="290" height="40" as="geometry" />
        </mxCell>
        <mxCell id="BGvKS-bfmUBT8Ne4-ugD-126" value="" style="shape=tableRow;horizontal=0;startSize=0;swimlaneHead=0;swimlaneBody=0;strokeColor=inherit;top=0;left=0;bottom=0;right=0;collapsible=0;dropTarget=0;fillColor=none;points=[[0,0.5],[1,0.5]];portConstraint=eastwest;" vertex="1" parent="BGvKS-bfmUBT8Ne4-ugD-125">
          <mxGeometry width="290" height="40" as="geometry" />
        </mxCell>
        <mxCell id="BGvKS-bfmUBT8Ne4-ugD-127" value="requester_id" style="shape=partialRectangle;html=1;whiteSpace=wrap;connectable=0;strokeColor=inherit;overflow=hidden;fillColor=none;top=0;left=0;bottom=0;right=0;pointerEvents=1;" vertex="1" parent="BGvKS-bfmUBT8Ne4-ugD-126">
          <mxGeometry width="120" height="40" as="geometry">
            <mxRectangle width="120" height="40" as="alternateBounds" />
          </mxGeometry>
        </mxCell>
        <mxCell id="BGvKS-bfmUBT8Ne4-ugD-128" value="admin_id" style="shape=partialRectangle;html=1;whiteSpace=wrap;connectable=0;strokeColor=inherit;overflow=hidden;fillColor=none;top=0;left=0;bottom=0;right=0;pointerEvents=1;" vertex="1" parent="BGvKS-bfmUBT8Ne4-ugD-126">
          <mxGeometry x="120" width="110" height="40" as="geometry">
            <mxRectangle width="110" height="40" as="alternateBounds" />
          </mxGeometry>
        </mxCell>
        <mxCell id="BGvKS-bfmUBT8Ne4-ugD-129" value="answer" style="shape=partialRectangle;html=1;whiteSpace=wrap;connectable=0;strokeColor=inherit;overflow=hidden;fillColor=none;top=0;left=0;bottom=0;right=0;pointerEvents=1;" vertex="1" parent="BGvKS-bfmUBT8Ne4-ugD-126">
          <mxGeometry x="230" width="60" height="40" as="geometry">
            <mxRectangle width="60" height="40" as="alternateBounds" />
          </mxGeometry>
        </mxCell>
        <mxCell id="BGvKS-bfmUBT8Ne4-ugD-130" style="edgeStyle=orthogonalEdgeStyle;rounded=0;orthogonalLoop=1;jettySize=auto;html=1;exitX=0.218;exitY=1.048;exitDx=0;exitDy=0;exitPerimeter=0;fillColor=#a0522d;strokeColor=#6D1F00;" edge="1" parent="1" source="BGvKS-bfmUBT8Ne4-ugD-122" target="SH9UqQtt1yjxoyA9mRzl-3">
          <mxGeometry relative="1" as="geometry">
            <mxPoint x="200" y="56" as="targetPoint" />
            <Array as="points">
              <mxPoint x="210" y="1210" />
              <mxPoint x="-60" y="1210" />
              <mxPoint x="-60" y="70" />
              <mxPoint x="200" y="70" />
            </Array>
          </mxGeometry>
        </mxCell>
        <mxCell id="BGvKS-bfmUBT8Ne4-ugD-132" style="edgeStyle=orthogonalEdgeStyle;rounded=0;orthogonalLoop=1;jettySize=auto;html=1;exitX=0.833;exitY=1.01;exitDx=0;exitDy=0;exitPerimeter=0;fillColor=#6d8764;strokeColor=#3A5431;" edge="1" parent="1" source="BGvKS-bfmUBT8Ne4-ugD-122" target="BGvKS-bfmUBT8Ne4-ugD-100">
          <mxGeometry relative="1" as="geometry">
            <mxPoint x="200" y="-60" as="targetPoint" />
            <Array as="points">
              <mxPoint x="352" y="1210" />
              <mxPoint x="1070" y="1210" />
              <mxPoint x="1070" y="-50" />
              <mxPoint x="220" y="-50" />
            </Array>
          </mxGeometry>
        </mxCell>
        <mxCell id="BGvKS-bfmUBT8Ne4-ugD-133" style="edgeStyle=orthogonalEdgeStyle;rounded=0;orthogonalLoop=1;jettySize=auto;html=1;exitX=0.547;exitY=1.067;exitDx=0;exitDy=0;exitPerimeter=0;fillColor=#f0a30a;strokeColor=#BD7000;" edge="1" parent="1" source="BGvKS-bfmUBT8Ne4-ugD-126">
          <mxGeometry relative="1" as="geometry">
            <Array as="points">
              <mxPoint x="319" y="1310" />
              <mxPoint x="1090" y="1310" />
              <mxPoint x="1090" y="-70" />
              <mxPoint x="248" y="-70" />
            </Array>
            <mxPoint x="248" y="-95" as="targetPoint" />
          </mxGeometry>
        </mxCell>
        <mxCell id="BGvKS-bfmUBT8Ne4-ugD-150" style="edgeStyle=orthogonalEdgeStyle;rounded=0;orthogonalLoop=1;jettySize=auto;html=1;exitX=0.756;exitY=1.134;exitDx=0;exitDy=0;exitPerimeter=0;fillColor=#fa6800;strokeColor=#C73500;strokeWidth=2;" edge="1" parent="1" source="BGvKS-bfmUBT8Ne4-ugD-24" target="BGvKS-bfmUBT8Ne4-ugD-100">
          <mxGeometry relative="1" as="geometry">
            <mxPoint x="180" y="-73" as="targetPoint" />
            <Array as="points">
              <mxPoint x="546" y="470" />
              <mxPoint x="1050" y="470" />
              <mxPoint x="1050" y="-30" />
              <mxPoint x="180" y="-30" />
            </Array>
          </mxGeometry>
        </mxCell>
      </root>
    </mxGraphModel>
  </diagram>
</mxfile>
